# xmcd
#
# Track frame offsets: 
#        150
#        24127
#        48655
#
# Disc length: 966 seconds
#
# Revision: 2
# Processed by: cddbd v1.5.2PL0 Copyright (c) Steve Scherf et al.
# Submitted via: ExactAudioCopy v1.3
#
DISCID=1a03c403
DTITLE=SEX MACHINEGUNS - TEKKEN II
DYEAR=1999
DGENRE=Heavy Metal
TTITLE0=TEKKEN II
TTITLE1=桜島 〜Noisy Special Version〜
TTITLE2=TEKKEN II 〜Anchangと"勝負じゃこりゃー" Version
EXTD=
EXTT0=
EXTT1=
EXTT2=
PLAYORDER=
